<svg xmlns="http://www.w3.org/2000/svg" width="25" height="25" viewBox="0 0 25 25">
<path fill="currentColor" d="M 10 0 L 22.5 0 C 23.878906 0 25 1.402344 25 3.125 L 25 14.0625 C 25 15.785156 23.878906 17.1875 22.5 17.1875 L 10 17.1875 C 8.621094 17.1875 7.5 15.785156 7.5 14.0625 L 7.5 3.125 C 7.5 1.402344 8.621094 0 10 0 Z M 18.59375 5.210938 C 18.417969 4.882812 18.125 4.6875 17.8125 4.6875 C 17.5 4.6875 17.207031 4.882812 17.03125 5.210938 L 14.84375 9.3125 L 14.167969 8.25 C 13.988281 7.972656 13.71875 7.8125 13.4375 7.8125 C 13.15625 7.8125 12.882812 7.972656 12.707031 8.25 L 10.207031 12.15625 C 9.980469 12.507812 9.9375 12.992188 10.09375 13.398438 C 10.25 13.804688 10.578125 14.0625 10.9375 14.0625 L 21.5625 14.0625 C 21.910156 14.0625 22.226562 13.824219 22.390625 13.441406 C 22.554688 13.0625 22.535156 12.597656 22.34375 12.242188 Z M 13.125 4.6875 C 13.125 3.824219 12.566406 3.125 11.875 3.125 C 11.183594 3.125 10.625 3.824219 10.625 4.6875 C 10.625 5.550781 11.183594 6.25 11.875 6.25 C 12.566406 6.25 13.125 5.550781 13.125 4.6875 Z M 2.5 6.25 L 6.25 6.25 L 6.25 20.3125 C 6.25 21.175781 6.808594 21.875 7.5 21.875 L 12.5 21.875 C 13.191406 21.875 13.75 21.175781 13.75 20.3125 L 13.75 18.75 L 20 18.75 L 20 21.875 C 20 23.597656 18.878906 25 17.5 25 L 2.5 25 C 1.121094 25 0 23.597656 0 21.875 L 0 9.375 C 0 7.652344 1.121094 6.25 2.5 6.25 Z M 2.8125 9.375 C 2.46875 9.375 2.1875 9.726562 2.1875 10.15625 L 2.1875 10.9375 C 2.1875 11.367188 2.46875 11.71875 2.8125 11.71875 L 3.4375 11.71875 C 3.78125 11.71875 4.0625 11.367188 4.0625 10.9375 L 4.0625 10.15625 C 4.0625 9.726562 3.78125 9.375 3.4375 9.375 Z M 2.8125 14.453125 C 2.46875 14.453125 2.1875 14.804688 2.1875 15.234375 L 2.1875 16.015625 C 2.1875 16.445312 2.46875 16.796875 2.8125 16.796875 L 3.4375 16.796875 C 3.78125 16.796875 4.0625 16.445312 4.0625 16.015625 L 4.0625 15.234375 C 4.0625 14.804688 3.78125 14.453125 3.4375 14.453125 Z M 2.8125 19.53125 C 2.46875 19.53125 2.1875 19.882812 2.1875 20.3125 L 2.1875 21.09375 C 2.1875 21.523438 2.46875 21.875 2.8125 21.875 L 3.4375 21.875 C 3.78125 21.875 4.0625 21.523438 4.0625 21.09375 L 4.0625 20.3125 C 4.0625 19.882812 3.78125 19.53125 3.4375 19.53125 Z M 15.9375 20.3125 L 15.9375 21.09375 C 15.9375 21.523438 16.21875 21.875 16.5625 21.875 L 17.1875 21.875 C 17.53125 21.875 17.8125 21.523438 17.8125 21.09375 L 17.8125 20.3125 C 17.8125 19.882812 17.53125 19.53125 17.1875 19.53125 L 16.5625 19.53125 C 16.21875 19.53125 15.9375 19.882812 15.9375 20.3125 Z M 15.9375 20.3125 "/>
</svg>
