<svg width="636.2" height="70.4" viewBox="0 0 636.2 70.4" xmlns="http://www.w3.org/2000/svg"><g id="svgGroup" stroke-linecap="round" fill-rule="evenodd" font-size="9pt" stroke="#00000000" stroke-width="0.25mm" fill="#00000000" style="stroke:#00000000;stroke-width:0.25mm;fill:#00000000"><path d="M 101.1 69.6 L 94.1 35.2 L 101.6 0.8 L 122.1 0.8 L 138.5 69.6 L 121.4 69.6 L 120.6 66.3 L 118.5 57.6 L 115.5 44.9 Q 113.6 37.2 111.9 29.8 L 111.3 29.8 L 107.9 44.9 L 106.8 50 Q 106.3 52.1 105.85 54 Q 105.4 55.9 105 57.6 L 103 66.3 L 102.2 69.6 L 101.1 69.6 Z M 350.2 69.6 L 341.4 46.2 L 337.4 46.2 L 337.4 30.9 L 340.8 30.9 Q 343.9 30.9 345.5 30.65 Q 346.665 30.468 347.459 30.047 A 3.701 3.701 0 0 0 348 29.7 Q 348.694 29.093 349.011 27.96 A 5.953 5.953 0 0 0 349.1 27.6 Q 349.4 26.2 349.4 23.5 A 39.222 39.222 0 0 0 349.374 22.007 Q 349.32 20.61 349.159 19.663 A 9.033 9.033 0 0 0 349.1 19.35 Q 348.8 17.9 348 17.2 Q 347.388 16.665 346.337 16.422 A 7.075 7.075 0 0 0 345.65 16.3 Q 344.472 16.148 342.285 16.112 A 89.294 89.294 0 0 0 340.8 16.1 L 337.4 16.1 L 337.4 0.8 L 347.7 0.8 A 59.982 59.982 0 0 1 351.874 0.937 Q 356.175 1.238 359.2 2.2 A 17.365 17.365 0 0 1 362.529 3.633 A 12.41 12.41 0 0 1 366 6.5 A 13.534 13.534 0 0 1 368.263 10.604 A 17.618 17.618 0 0 1 368.95 13.2 Q 369.454 15.888 369.619 19.613 A 87.918 87.918 0 0 1 369.7 23.5 Q 369.7 30.974 368.423 35.298 A 17.823 17.823 0 0 1 368.2 36 A 14.134 14.134 0 0 1 365.242 40.837 A 13.39 13.39 0 0 1 360.8 43.9 L 371.2 69.6 L 350.2 69.6 Z M 224.8 70.3 L 224.8 49.3 Q 224.8 47.2 224.5 46.25 A 2.833 2.833 0 0 0 224.253 45.68 Q 224.038 45.308 223.723 45.084 A 1.681 1.681 0 0 0 223.5 44.95 A 3.187 3.187 0 0 0 223.042 44.77 Q 222.335 44.546 221.1 44.4 L 208.8 42.9 A 34.717 34.717 0 0 1 203.51 41.931 Q 196.891 40.133 194.1 35.8 A 13.466 13.466 0 0 1 192.485 32.493 A 18.143 18.143 0 0 1 191.8 29.7 Q 191.2 26.1 191.2 20.9 Q 191.2 9.8 196.9 4.9 Q 201.479 0.919 211.209 0.207 A 52.528 52.528 0 0 1 211.3 0.2 L 211.3 20.3 A 28.267 28.267 0 0 0 211.314 21.219 Q 211.329 21.663 211.358 22.047 A 13.264 13.264 0 0 0 211.4 22.5 A 5.535 5.535 0 0 0 211.482 23.024 Q 211.538 23.29 211.617 23.509 A 2.251 2.251 0 0 0 211.8 23.9 A 1.654 1.654 0 0 0 212.611 24.673 A 2.218 2.218 0 0 0 212.8 24.75 Q 213.409 24.968 214.547 25.072 A 17.916 17.916 0 0 0 214.9 25.1 L 228.7 26.8 A 60.201 60.201 0 0 1 231.467 27.248 Q 233.928 27.71 235.7 28.3 A 11.747 11.747 0 0 1 239.559 30.423 A 11.217 11.217 0 0 1 240.3 31.1 Q 244.277 35.254 244.739 45.111 A 57.486 57.486 0 0 1 244.8 47.8 A 45.182 45.182 0 0 1 244.405 54.011 Q 243.313 61.855 239.2 65.6 A 14.78 14.78 0 0 1 234.234 68.592 A 17.601 17.601 0 0 1 233.15 68.95 A 30.416 30.416 0 0 1 229.804 69.725 Q 228.076 70.03 226.125 70.201 A 53.084 53.084 0 0 1 224.8 70.3 Z M 39.7 69.6 L 24.2 45.5 L 24.2 24 L 40 0.8 L 61.8 0.8 L 38.1 33.2 L 62.1 69.6 L 39.7 69.6 Z M 549.8 69.6 L 511.1 3.6 L 511.1 0.8 L 531.1 0.8 L 569.7 66.7 L 569.7 69.6 L 549.8 69.6 Z M 601.3 0.6 L 601.3 35.2 Q 601.3 42.3 601.7 46.05 Q 602.091 49.715 603.15 51.708 A 7.282 7.282 0 0 0 603.2 51.8 Q 604.4 53.9 606.65 54.7 Q 608.682 55.423 612.306 55.493 A 41.198 41.198 0 0 0 613.1 55.5 L 613.1 70.4 L 612.1 70.4 A 109.589 109.589 0 0 1 606.246 70.254 Q 600.241 69.931 596.15 68.9 A 21.666 21.666 0 0 1 591.753 67.302 A 15.523 15.523 0 0 1 586.9 63.6 A 17.663 17.663 0 0 1 584.235 59.4 Q 583.324 57.43 582.697 55.038 A 34.696 34.696 0 0 1 582.25 53.1 A 55.502 55.502 0 0 1 581.538 48.473 Q 580.9 42.9 580.9 35.2 A 165.688 165.688 0 0 1 581.006 29.071 Q 581.209 23.603 581.8 19.6 A 39.398 39.398 0 0 1 582.658 15.335 Q 583.227 13.171 584.015 11.378 A 19.922 19.922 0 0 1 584.9 9.6 Q 587.2 5.6 591.1 3.5 A 21.299 21.299 0 0 1 594.665 2.008 Q 596.474 1.425 598.614 1.021 A 45.035 45.035 0 0 1 601.3 0.6 Z M 79.1 69.6 L 78.4 66.7 Q 77.864 64.556 77.094 61.123 A 545.475 545.475 0 0 1 76.6 58.9 L 73.9 47.9 L 70.9 35.3 L 62.8 0.8 L 82.7 0.8 L 96.9 69.6 L 79.1 69.6 Z M 0 69.6 L 0 0.8 L 20 0.8 L 20 69.6 L 0 69.6 Z M 313.2 69.6 L 313.2 0.8 L 333.2 0.8 L 333.2 69.6 L 313.2 69.6 Z M 380.6 69.6 L 380.6 0.8 L 400.6 0.8 L 400.6 69.6 L 380.6 69.6 Z M 413.6 69.6 L 413.6 0.8 L 433.6 0.8 L 433.6 69.6 L 413.6 69.6 Z M 478.1 69.6 L 478.1 0.8 L 498.1 0.8 L 498.1 69.6 L 478.1 69.6 Z M 142.8 69.6 L 134.5 34.6 L 140.5 0.8 L 160.4 0.8 L 152.2 35.3 L 149.2 47.9 Q 147.45 54.991 146.718 58.351 A 101.918 101.918 0 0 0 146.6 58.9 L 144.7 66.7 L 144 69.6 L 142.8 69.6 Z M 437.8 48.2 L 437.8 32.9 L 440.2 32.9 Q 442.736 32.9 444.235 32.743 A 13.048 13.048 0 0 0 444.95 32.65 A 5.444 5.444 0 0 0 446.082 32.348 A 3.816 3.816 0 0 0 447.4 31.5 Q 448.3 30.7 448.55 29.15 Q 448.758 27.861 448.793 25.501 A 67.544 67.544 0 0 0 448.8 24.5 Q 448.8 21.991 448.636 20.497 A 12.942 12.942 0 0 0 448.55 19.85 A 5.444 5.444 0 0 0 448.248 18.718 A 3.816 3.816 0 0 0 447.4 17.4 A 3.817 3.817 0 0 0 446.364 16.754 Q 445.725 16.479 444.9 16.35 Q 443.3 16.1 440.2 16.1 L 437.8 16.1 L 437.8 0.8 L 446.1 0.8 A 62.037 62.037 0 0 1 450.863 0.972 Q 453.113 1.145 455.029 1.495 A 26.494 26.494 0 0 1 458.15 2.25 Q 462.8 3.7 465.2 6.7 A 13.901 13.901 0 0 1 467.489 10.767 A 18.618 18.618 0 0 1 468.3 13.75 A 40.102 40.102 0 0 1 468.78 17.175 Q 469.1 20.387 469.1 24.5 A 84.9 84.9 0 0 1 469.003 28.685 Q 468.906 30.647 468.711 32.337 A 37.655 37.655 0 0 1 468.35 34.8 A 17.745 17.745 0 0 1 467.283 38.467 A 13.865 13.865 0 0 1 465.4 41.7 A 13.604 13.604 0 0 1 461.555 45.025 A 18.837 18.837 0 0 1 458.25 46.55 Q 454.873 47.748 449.994 48.076 A 58.145 58.145 0 0 1 446.1 48.2 L 437.8 48.2 Z M 249.5 16.8 L 249.5 0.8 L 305.8 0.8 L 305.8 16.8 L 249.5 16.8 Z M 511.1 69.6 L 511.1 11.9 L 530.1 44.4 L 530.1 69.6 L 511.1 69.6 Z M 569.7 58.4 L 550.7 25.9 L 550.7 0.8 L 569.7 0.8 L 569.7 58.4 Z M 267.6 69.6 L 267.6 20.8 L 287.6 20.8 L 287.6 69.6 L 267.6 69.6 Z M 617.3 70.2 L 617.3 43.2 L 610.2 43.2 L 610.2 28.7 L 636.2 28.7 L 636.2 67.9 A 58.524 58.524 0 0 1 632.352 68.655 Q 630.287 68.994 627.906 69.263 A 125.475 125.475 0 0 1 624.5 69.6 Q 621.1 70.1 617.3 70.2 Z M 605.5 16.8 L 605.5 0.2 Q 609.301 0.01 611.838 0.001 A 70.368 70.368 0 0 1 612.1 0 A 117.612 117.612 0 0 1 621.495 0.359 A 91.117 91.117 0 0 1 628.6 1.2 Q 632.4 1.6 635.9 2.4 L 635.9 16.7 A 294.599 294.599 0 0 1 633.931 16.506 Q 631.175 16.225 629.6 16 A 50.532 50.532 0 0 1 628.619 15.931 Q 627.126 15.814 624.688 15.562 A 347.875 347.875 0 0 1 624.1 15.5 A 362.887 362.887 0 0 0 622.562 15.422 Q 620.629 15.329 619.627 15.307 A 24.618 24.618 0 0 0 619.1 15.3 Q 613.228 15.3 610.367 15.532 A 32.683 32.683 0 0 0 610.15 15.55 A 16.103 16.103 0 0 0 608.179 15.839 Q 606.632 16.171 605.5 16.8 Z M 193.2 68.5 L 193.2 53.9 Q 199.1 54.4 206.7 54.9 Q 211.5 55.1 213.5 55.1 A 153.646 153.646 0 0 0 215.685 55.086 Q 218.635 55.044 220.057 54.878 A 9.496 9.496 0 0 0 220.6 54.8 L 220.6 70.4 L 219.5 70.4 A 195.83 195.83 0 0 1 208.119 70.083 A 157.347 157.347 0 0 1 200.9 69.5 Q 196.995 69.117 194.556 68.735 A 40.393 40.393 0 0 1 193.2 68.5 Z M 215.5 15.5 L 215.5 0 L 218 0 A 134.1 134.1 0 0 1 231.721 0.726 A 151.125 151.125 0 0 1 235 1.1 A 96.464 96.464 0 0 1 237.779 1.541 Q 239.441 1.828 241.3 2.2 L 241.3 16.6 Q 238.261 16.232 230.983 15.609 A 1064.387 1064.387 0 0 0 229.7 15.5 Q 225.1 15.3 222.3 15.3 Q 218.7 15.3 215.5 15.5 Z" vector-effect="non-scaling-stroke"/></g></svg>